<?xml version="1.0" encoding="UTF-8" standalone="no"?>
<svg
   xmlns:dc="http://purl.org/dc/elements/1.1/"
   xmlns:cc="http://creativecommons.org/ns#"
   xmlns:rdf="http://www.w3.org/1999/02/22-rdf-syntax-ns#"
   xmlns:svg="http://www.w3.org/2000/svg"
   xmlns="http://www.w3.org/2000/svg"
   xmlns:sodipodi="http://sodipodi.sourceforge.net/DTD/sodipodi-0.dtd"
   xmlns:inkscape="http://www.inkscape.org/namespaces/inkscape"
   inkscape:version="1.0beta2 (2b71d25, 2019-12-03)"
   sodipodi:docname="change_directory.svg"
   id="svg18"
   version="1.1"
   width="1024"
   viewBox="0 0 1024 1024"
   height="1024">
  <metadata
     id="metadata24">
    <rdf:RDF>
      <cc:Work
         rdf:about="">
        <dc:format>image/svg+xml</dc:format>
        <dc:type
           rdf:resource="http://purl.org/dc/dcmitype/StillImage" />
      </cc:Work>
    </rdf:RDF>
  </metadata>
  <defs
     id="defs22" />
  <sodipodi:namedview
     inkscape:current-layer="svg18"
     inkscape:window-maximized="0"
     inkscape:window-y="0"
     inkscape:window-x="0"
     inkscape:cy="522.91935"
     inkscape:cx="391.15934"
     inkscape:zoom="1.3037281"
     showgrid="false"
     id="namedview20"
     inkscape:window-height="1645"
     inkscape:window-width="1801"
     inkscape:pageshadow="2"
     inkscape:pageopacity="0"
     guidetolerance="10"
     gridtolerance="10"
     objecttolerance="10"
     borderopacity="1"
     inkscape:document-rotation="0"
     bordercolor="#666666"
     pagecolor="#ffffff" />
  <g
     style="stroke-width:12;stroke-miterlimit:4;stroke-dasharray:none"
     id="g10"
     stroke="#000"
     fill="#67cde0">
    <path
       style="stroke-width:12;stroke-miterlimit:4;stroke-dasharray:none"
       id="path2"
       d="m130.76036 87.294785c1.88562-1.885618 5.67857-1.428572 5.67857-1.428572l8.90363-.01077c1.77741-.05304 3.19763.01461 3.88208-.524947 2.47129-1.935569.9738-4.701822 3.03572-6.392857.99276-.814188 5.14286-.714283 5.14286-.714283h30.42857s2.90009-.278473 4.07143.714285c2.0343 1.724162-.0484 3.432354 2.32142 6.035715 1.48487 1.631194 4.60714.892857 4.60714.892857l138.14286.357143s5.04295-.457047 6.92857 1.428571 1.07143 6.571429 1.07143 6.571429v120.000004 8h-8-200-8v-128.000004s-.0999-5.042953 1.78572-6.928571z" />
    <path
       style="stroke-width:12;stroke-miterlimit:4;stroke-dasharray:none"
       id="path4"
       d="m672.527 537.24407c1.88562-1.88562 5.67857-1.42857 5.67857-1.42857l8.90363-.0108c1.77741-.053 3.19763.0146 3.88209-.52495 2.47128-1.93557.97379-4.70182 3.03571-6.39285.99276-.81416 5.14286-.71426 5.14286-.71426h30.42857s2.9001-.27847 4.07143.71429c2.0343 1.72416-.0484 3.43235 2.32143 6.03571 1.48487 1.6312 4.60714.89286 4.60714.89286l138.14286.35714s5.04295-.45704 6.92857 1.42857c1.88562 1.88562 1.07143 6.57143 1.07143 6.57143v120 8h-8-200-8v-128s-.0999-5.04295 1.78571-6.92857z" />
    <path
       style="stroke-width:12;stroke-miterlimit:4;stroke-dasharray:none"
       id="path6"
       d="m674.54731 252.38106c1.88561-1.88562 5.67857-1.42857 5.67857-1.42857l8.90362-.0108c1.77742-.053 3.19764.0146 3.88209-.52495 2.47129-1.93557.9738-4.70182 3.03572-6.39285.99276-.81416 5.14285-.71426 5.14285-.71426h30.42858s2.90009-.27847 4.07142.71429c2.0343 1.72416-.0484 3.43235 2.32143 6.03571 1.48487 1.6312 4.60714.89286 4.60714.89286l138.14286.35714s5.04295-.45704 6.92857 1.42857c1.88562 1.88562 1.07143 6.57143 1.07143 6.57143v120 8h-8-200-8v-128s-.0999-5.04295 1.78572-6.92857z" />
    <path
       style="stroke-width:12;stroke-miterlimit:4;stroke-dasharray:none"
       id="path8"
       d="m671.73521 825.28489c1.88562-1.88562 5.67857-1.42857 5.67857-1.42857l8.90363-.0108c1.77742-.053 3.19764.0146 3.88209-.52495 2.47128-1.93557.9738-4.70182 3.03571-6.39285.99277-.81419 5.14286-.71429 5.14286-.71429h30.42857s2.9001-.27847 4.07143.71429c2.0343 1.72416-.0484 3.43235 2.32143 6.03571 1.48487 1.6312 4.60714.89286 4.60714.89286l138.14286.35717s5.04295-.45704 6.92857 1.42857c1.88562 1.88562 1.07143 6.57143 1.07143 6.57143v120 8h-8-200-8v-128s-.0999-5.04295 1.78571-6.92857z" />
  </g>
  <path
     id="path12"
     stroke-width=".992"
     stroke="#c80000"
     fill="#c80000"
     d="m224 224 .35714 171.92857.35715 171.92857.53044 324.29551s.8323 10.78631 4.22445 14.51088c3.60834 3.96194 14.9496 5.91297 14.9496 5.91297l172.29551-.14792 95.64285.35714 95.64286.35714v30.57143l60.57143-49.14286-62-44.85714.85714 34.28571-87.85714-.35714-87.85714-.35715-147.85715-.35714s-17.25684.54381-22.80638-4.90283c-5.26-5.16246-5.05076-21.52574-5.05076-21.52574v-303.21429-164.64285-164.64286z" />
  <path
     id="path14"
     stroke-width=".992"
     stroke="#c80000"
     fill="#c80000"
     d="m225.53045 317.29556s.8323 10.7863 4.22445 14.5108c3.60834 3.962 14.9496 5.913 14.9496 5.913l172.29551-.1479 95.64285.3571 95.64286.3572v30.5714l60.57143-49.1429-62-44.85711.85714 34.28571-87.85714-.3571-87.85714-.3572-147.85715-.3571s-17.25684.5438-22.80638-4.9029c-5.26-5.1624-5.05076-21.5257-5.05076-21.5257z" />
  <path
     id="path16"
     stroke-width=".992"
     stroke="#c80000"
     fill="#c80000"
     d="m226.95902 605.86699s.8323 10.7863 4.22445 14.5108c3.60834 3.962 14.9496 5.913 14.9496 5.913l172.29551-.1479 95.64285.3571 63.04627.23546 32.59659.12174v30.5714l60.57143-49.1429-62-44.85711.85714 34.28571-87.85714-.3571-87.85714-.3572-147.85715-.3571s-17.25684.5438-22.80638-4.9029c-5.26-5.1624-5.05076-21.5257-5.05076-21.5257z" />
</svg>
