<svg height="1024" viewBox="0 0 1024 1024" width="1024" xmlns="http://www.w3.org/2000/svg"><g stroke="#0000a2" stroke-width="1.952"><path d="m352.00001 512.00002c-26.1469 6.53672-6.42269 55.94554-33.22842 53.14529-26.80574-2.80026 2.70415-47.06585-21.52725-58.86533-24.23141-11.79948-40.88117 38.72835-59.61559 19.35284-18.73441-19.37552 32.32485-34.31634 21.34708-58.93091-10.97777-24.61458-56.2109 3.38973-58.10795-23.49503-1.89706-26.88475 46.82039-5.50982 54.23287-31.42205 7.41248-25.91224-45.23893-33.53499-29.41097-55.34931s39.40815 25.8748 61.7425 10.78952c22.33435-15.08527-13.09915-54.7683 13.04774-61.30503 26.1469-6.53672 13.55639 45.15231 40.36213 47.95257 26.80573 2.80025 25.16985-50.37493 49.40126-38.57545s-18.63855 43.30255.0959 62.67807c18.73441 19.37551 51.66161-22.41057 62.63938 2.20401 10.97778 24.61457-42.1123 21.19105-40.21524 48.07581 1.89705 26.88475 53.98032 16.03995 46.56784 41.95219s-45.88124-10.83598-61.7092 10.97834c-15.82797 21.81432 31.04104 46.9852 8.70668 62.07048-22.33435 15.08527-28.18184-37.79273-54.32873-31.25601z" fill="#000091" transform="matrix(1.9298167 0 0 2.0042114 -320.08845 -522.86053)"/><path d="m736 352.00003c-21.56531 14.37687-28.56684-29.89672-54.23441-26.30044-25.66756 3.59628-20.23202 48.08928-44.91806 40.19267-24.68605-7.8966 5.56306-40.97475-13.25209-58.80022s-50.21217 14.16515-59.42986-10.05863c-9.21768-24.22378 35.50387-21.19797 37.70933-47.02224 2.20545-25.82428-42.38154-30.42564-29.18975-52.73559 13.19178-22.30996 38.70953 14.54132 60.27484.16445 21.56531-14.37688-2.63673-52.10529 23.03083-55.70157 25.66757-3.59628 12.76614 39.3307 37.45218 47.22731 24.68605 7.8966 39.09358-34.5486 57.90873-16.72313s-22.79042 34.50325-13.57274 58.72703 51.38563 9.02389 49.18017 34.84817c-2.20546 25.82427-41.18533 3.69415-54.37711 26.00411-13.19178 22.30995 24.98325 45.80121 3.41794 60.17808z" fill="#ba0001" transform="matrix(1.7205557 -.1894508 .19384977 1.7605062 -447.53067 -46.553799)"/><path d="m736.00001 863.99999c-32.68362 13.07345-25.51164-56.04009-60.69558-54.93352-35.18393 1.10657-23.68304 69.63283-57.12359 58.63905-33.44056-10.99379 16.47883-59.32776-11.18492-81.09588s-62.90139 38.11867-81.45167 8.20177 50.75867-34.85531 43.55928-69.31258c-7.19938-34.45726-72.68747-11.23163-67.66759-46.0732 5.01987-34.84156 61.28796 5.92633 77.92161-25.09714s-48.46228-55.32654-22.22111-78.79001c26.24118-23.46348 43.13994 43.93496 75.82356 30.86151 32.68361-13.07344-1.56105-73.53353 33.62289-74.6401 35.18394-1.10656 4.80625 61.38596 38.24681 72.37974 33.44055 10.99378 46.07061-57.33338 73.73436-35.56526 27.66374 21.76812-35.77633 50.11377-17.22604 80.03067 18.55028 29.9169 72.14532-14.3063 79.3447 20.15096 7.19938 34.45727-59.61876 15.3928-64.63863 50.23437s64.46243 35.41486 47.82877 66.43833c-16.63365 31.02346-55.56492-26.53064-81.80609-3.06716s26.61685 68.56501-6.06676 81.63845z" fill="#009f01" transform="matrix(1.5872155 0 0 1.6162616 -405.84245 -470.14347)"/></g></svg>