<?xml version="1.0" encoding="UTF-8" standalone="no"?>
<svg
   xmlns:dc="http://purl.org/dc/elements/1.1/"
   xmlns:cc="http://creativecommons.org/ns#"
   xmlns:rdf="http://www.w3.org/1999/02/22-rdf-syntax-ns#"
   xmlns:svg="http://www.w3.org/2000/svg"
   xmlns="http://www.w3.org/2000/svg"
   xmlns:sodipodi="http://sodipodi.sourceforge.net/DTD/sodipodi-0.dtd"
   xmlns:inkscape="http://www.inkscape.org/namespaces/inkscape"
   inkscape:version="1.0beta2 (2b71d25, 2019-12-03)"
   sodipodi:docname="cut.svg"
   id="svg37"
   version="1.1"
   width="1024"
   height="1024">
  <metadata
     id="metadata43">
    <rdf:RDF>
      <cc:Work
         rdf:about="">
        <dc:format>image/svg+xml</dc:format>
        <dc:type
           rdf:resource="http://purl.org/dc/dcmitype/StillImage" />
      </cc:Work>
    </rdf:RDF>
  </metadata>
  <defs
     id="defs41" />
  <sodipodi:namedview
     inkscape:current-layer="svg37"
     inkscape:window-maximized="0"
     inkscape:window-y="0"
     inkscape:window-x="0"
     inkscape:cy="583.31958"
     inkscape:cx="721.47406"
     inkscape:zoom="1.3037281"
     showgrid="false"
     id="namedview39"
     inkscape:window-height="1818"
     inkscape:window-width="1955"
     inkscape:pageshadow="2"
     inkscape:pageopacity="0"
     guidetolerance="10"
     gridtolerance="10"
     objecttolerance="10"
     borderopacity="1"
     inkscape:document-rotation="0"
     bordercolor="#666666"
     pagecolor="#ffffff" />
  <linearGradient
     y2="342.19473"
     y1="83.005679"
     x2="-223.12883"
     x1="-686.00447"
     gradientUnits="userSpaceOnUse"
     id="a">
    <stop
       id="stop2"
       stop-color="#fff"
       offset="0" />
    <stop
       id="stop4"
       stop-color="#616161"
       offset="1" />
  </linearGradient>
  <linearGradient
     y2="381.36194"
     y1="314.44403"
     x2="256.27609"
     x1="209.88564"
     gradientUnits="userSpaceOnUse"
     gradientTransform="matrix(0.505075,0.180338,-0.157515,0.441155,151.0349,-63.04269)"
     id="b">
    <stop
       id="stop7"
       stop-color="#fff"
       offset="0" />
    <stop
       id="stop9"
       stop-color="#c0c0c0"
       offset="1" />
  </linearGradient>
  <radialGradient
     r="19.209267"
     gradientUnits="userSpaceOnUse"
     gradientTransform="matrix(-0.59615152,1.6889006,-1.6976899,-0.58554061,1261.6615,-1136.2131)"
     fy="117.51794"
     fx="1001.483"
     cy="111.54775"
     cx="992.68909"
     id="c">
    <stop
       id="stop12"
       stop-color="#8e8e8b"
       offset="0" />
    <stop
       id="stop14"
       stop-color="#c3c0c5"
       offset="1" />
  </radialGradient>
  <g
     style="stroke-width:6.16232562;stroke-miterlimit:4;stroke-dasharray:none"
     stroke="#000"
     stroke-width="3.081163"
     transform="matrix(-0.42221597,1.1960862,-1.2561166,-0.4332582,584.60875,963.99617)"
     id="g21">
    <path
       d="m -211.37622,224.91331 -3.77002,47.12529 -356.26715,-53.72283 c 0,0 -1.88501,0.94251 -12.25257,-0.9425 -10.36756,-1.88501 -81.05549,-16.0226 -89.53804,-20.73513 -8.48255,-4.71252 -21.67763,-9.42505 -20.73513,-13.19507 0.94251,-3.77003 5.65504,-16.0226 38.64273,-11.31007 32.9877,4.71253 314.7969,27.33266 314.7969,27.33266 z"
       fill="url(#a)"
       fill-rule="evenodd"
       id="path17"
       style="fill:url(#a);stroke-width:6.16232562;stroke-miterlimit:4;stroke-dasharray:none"
       inkscape:connector-curvature="0" />
    <path
       style="stroke-width:6.16232562;stroke-miterlimit:4;stroke-dasharray:none"
       d="m -4.9761961,200.86502 c -50.8331999,0.31263 -101.3910939,6.35843 -152.0458939,9.88463 -18.4795,1.92176 -36.0754,8.27762 -54.4745,10.64931 -11.5016,0.22162 -17.5327,7.05413 -16.0003,18.20717 -0.8234,9.86666 -1.3517,19.75573 -2.219,29.61893 10.4545,10.00185 26.4952,6.24536 39.2599,10.84152 18.1714,5.58868 27.7874,27.39037 48.0011,27.99475 12.415,0.97818 24.8038,2.21498 37.1186,3.82758 28.583194,1.20447 57.531594,3.93521 85.836394,-1.67607 21.0299999,-1.36743 40.4938,-10.16116 59.8669,-17.64273 22.5284,-11.41479 37.9002,-39.02217 29.4027,-63.93699 -4.5996,-16.05292 -20.957,-24.47092 -36.5336,-26.19686 -12.6475,-1.90411 -25.4751003,-1.21893 -38.2123001,-1.57124 z m 1.5937,31.34375 c 13.6797001,0.84706 32.0750001,-2.23674 40.0206001,12.04284 7.1653,14.98882 -2.1491,33.05718 -16.5093,39.71584 -20.73960006,10.04944 -44.4105,11.43931 -67.0372,13.13301 -26.7898,0.70079 -55.361904,3.13929 -80.146694,-9.1475 -11.4078,-6.07608 -22.2717,-19.569 -18.0759,-33.00521 9.4452,-7.93498 23.0264,-11.21689 35.0346,-14.43964 16.831094,-2.79209 33.997594,-2.66117 50.870794,-4.87831 18.6533,-0.44625 37.2287,-2.38654 55.8430999,-3.42103 z"
       fill="#ef6d4b"
       id="path19"
       inkscape:connector-curvature="0" />
  </g>
  <path
     d="m 430.42646,983.51985 c -0.50492,-4.64461 -0.88097,-5.98012 0,0 z"
     id="path23"
     inkscape:connector-curvature="0" />
  <g
     style="stroke-width:8;stroke-miterlimit:4;stroke-dasharray:none"
     transform="translate(-49.898204,-0.897027)"
     stroke="#000"
     id="g33">
    <g
       style="stroke-width:3.08868448;stroke-miterlimit:4;stroke-dasharray:none"
       stroke-width="1.544342"
       transform="matrix(1.7368518,2.0416885,-2.1894692,1.2887692,376.86132,-152.04409)"
       id="g29">
      <path
         sodipodi:nodetypes="csssscccsc"
         d="m 226.79845,144.89575 c 0,0 -97.39922,-15.03415 -168.45101,-24.9182 -13.456255,-1.87191 -23.430059,-4.12216 -31.178758,-9.07555 -2.371307,-1.51587 -10.195199,-8.29769 9.758253,-7.61364 19.953447,0.68404 69.562225,3.17274 92.230795,5.7397 45.33715,5.1339 99.79222,10.5087 99.79222,10.5087 l 50.29735,-20.758499 7.74459,21.396049 c -3.39464,1.98389 -16.25851,7.30859 -34.68674,16.53647 -14.09235,7.05669 -25.5067,8.18497 -25.5067,8.18497 z"
         fill="url(#b)"
         fill-rule="evenodd"
         id="path25"
         style="fill:url(#b);stroke-width:3.08868448;stroke-miterlimit:4;stroke-dasharray:none"
         inkscape:connector-curvature="0" />
      <path
         style="stroke-width:3.08868448;stroke-miterlimit:4;stroke-dasharray:none"
         d="m 372.96231,47.174641 c -9.6682,-1.575398 -19.47986,-0.690601 -28.80713,0.84201 -12.68662,3.499994 -18.98143,14.412947 -26.9015,22.876513 -7.49627,8.238426 -16.60104,15.495662 -27.75306,19.67075 -6.50423,3.147834 -13.50047,5.692574 -19.19813,9.934896 -2.21269,5.42655 3.65454,10.38158 5.01846,15.62643 1.04088,4.85248 5.90105,9.9763 11.67186,7.61136 8.37779,-2.09486 16.27087,-5.31608 24.54498,-7.62998 7.54555,-3.13658 15.98372,-4.41788 24.06818,-6.26881 5.94128,-0.10045 12.70675,-2.25538 18.23624,0.95481 6.22574,3.57181 12.60874,9.63688 20.40909,8.00519 7.949,-1.51235 12.13161,-8.18823 15.33008,-14.19116 6.24014,-9.338062 13.03551,-20.012364 9.67568,-31.825026 -2.71926,-11.854302 -13.1756,-22.186873 -26.29475,-25.606983 z m -6.52952,9.241815 c 13.16564,3.449075 24.14263,16.846272 19.82425,28.653759 -2.40326,7.99742 -10.1646,13.561255 -19.01724,15.438955 -7.18081,1.99514 -16.42478,0.34056 -21.06051,-5.920493 -7.90052,-8.808913 -7.24111,-20.971157 -2.742,-30.174166 3.60067,-6.968966 12.91388,-11.494278 21.76729,-8.330271 z"
         fill="#ef6d4b"
         id="path27"
         inkscape:connector-curvature="0" />
    </g>
    <path
       d="m 460.67173,459.90616 c 9.62754,-10.04719 24.91775,-11.36489 35.65235,-3.07259 6.08417,4.7 7.8266,7.83374 9.12877,16.41852 1.82473,12.03037 -5.78494,22.78698 -18.03223,25.48941 -6.75625,1.49086 -8.00221,1.34661 -15.53549,-1.79837 -10.89517,-4.54849 -14.6431,-8.85726 -16.11794,-18.52988 -1.31125,-8.60012 -0.0584,-13.32783 4.90454,-18.50709 z"
       fill="url(#c)"
       stroke-width="2.5901"
       id="path31"
       style="fill:url(#c);stroke-width:8;stroke-miterlimit:4;stroke-dasharray:none"
       inkscape:connector-curvature="0" />
  </g>
</svg>
