<svg height="1024" width="1024" xmlns="http://www.w3.org/2000/svg" xmlns:xlink="http://www.w3.org/1999/xlink"><linearGradient id="a" gradientUnits="userSpaceOnUse" x1="-686.00447" x2="-223.12883" y1="83.005679" y2="342.19473"><stop offset="0" stop-color="#fff"/><stop offset="1" stop-color="#616161"/></linearGradient><linearGradient id="b" gradientTransform="matrix(.505075 .180338 -.157515 .441155 151.0349 -63.04269)" gradientUnits="userSpaceOnUse" x1="209.88564" x2="256.27609" y1="314.44403" y2="381.36194"><stop offset="0" stop-color="#fff"/><stop offset="1" stop-color="#c0c0c0"/></linearGradient><radialGradient id="c" cx="992.68909" cy="111.54775" fx="1001.483" fy="117.51794" gradientTransform="matrix(-.59615152 1.6889006 -1.6976899 -.58554061 1261.6615 -1136.2131)" gradientUnits="userSpaceOnUse" r="19.209267"><stop offset="0" stop-color="#8e8e8b"/><stop offset="1" stop-color="#c3c0c5"/></radialGradient><g transform="translate(-49.898204 -.897027)"><g stroke="#000" stroke-width="3.081163" transform="matrix(-.42221596854 1.19608623531 -1.2561165689 -.43325819998 634.50695190058 964.89320461275)"><path d="m-211.37622 224.91331-3.77002 47.12529-356.26715-53.72283s-1.88501.94251-12.25257-.9425-81.05549-16.0226-89.53804-20.73513c-8.48255-4.71252-21.67763-9.42505-20.73513-13.19507.94251-3.77003 5.65504-16.0226 38.64273-11.31007 32.9877 4.71253 314.7969 27.33266 314.7969 27.33266z" fill="url(#a)" fill-rule="evenodd"/><path d="m-4.9761961 200.86502c-50.8331999.31263-101.3910939 6.35843-152.0458939 9.88463-18.4795 1.92176-36.0754 8.27762-54.4745 10.64931-11.5016.22162-17.5327 7.05413-16.0003 18.20717-.8234 9.86666-1.3517 19.75573-2.219 29.61893 10.4545 10.00185 26.4952 6.24536 39.2599 10.84152 18.1714 5.58868 27.7874 27.39037 48.0011 27.99475 12.415.97818 24.8038 2.21498 37.1186 3.82758 28.583194 1.20447 57.531594 3.93521 85.836394-1.67607 21.0299999-1.36743 40.4938-10.16116 59.8669-17.64273 22.5284-11.41479 37.9002-39.02217 29.4027-63.93699-4.5996-16.05292-20.957-24.47092-36.5336-26.19686-12.6475-1.90411-25.4751003-1.21893-38.2123001-1.57124zm1.5937 31.34375c13.6797001.84706 32.0750001-2.23674 40.0206001 12.04284 7.1653 14.98882-2.1491 33.05718-16.5093 39.71584-20.73960006 10.04944-44.4105 11.43931-67.0372 13.13301-26.7898.70079-55.361904 3.13929-80.146694-9.1475-11.4078-6.07608-22.2717-19.569-18.0759-33.00521 9.4452-7.93498 23.0264-11.21689 35.0346-14.43964 16.831094-2.79209 33.997594-2.66117 50.870794-4.87831 18.6533-.44625 37.2287-2.38654 55.8430999-3.42103z" fill="#ef6d4b"/></g><path d="m480.32466 984.41688c-.50492-4.64461-.88097-5.98012 0 0z"/><g stroke="#000"><g stroke-width="1.544342" transform="matrix(1.7368518 2.0416885 -2.1894692 1.2887692 376.86132 -152.04409)"><path d="m226.79845 144.89575s-97.39922-15.03415-168.45101-24.9182c-13.456255-1.87191-23.430059-4.12216-31.178758-9.07555-2.371307-1.51587-10.195199-8.29769 9.758253-7.61364 19.953447.68404 69.562225 3.17274 92.230795 5.7397 45.33715 5.1339 99.79222 10.5087 99.79222 10.5087l50.29735-20.758499 10.58813 25.548499c.71035-3.6776-19.79166 1.00256-39.97223 8.84035-14.7811 5.74074-23.06475 11.72864-23.06475 11.72864z" fill="url(#b)" fill-rule="evenodd"/><path d="m372.96231 47.174641c-9.6682-1.575398-19.47986-.690601-28.80713.84201-12.68662 3.499994-18.98143 14.412947-26.9015 22.876513-7.49627 8.238426-16.60104 15.495662-27.75306 19.67075-6.50423 3.147834-13.50047 5.692574-19.19813 9.934896-2.21269 5.42655 3.65454 10.38158 5.01846 15.62643 1.04088 4.85248 5.90105 9.9763 11.67186 7.61136 8.37779-2.09486 16.27087-5.31608 24.54498-7.62998 7.54555-3.13658 15.98372-4.41788 24.06818-6.26881 5.94128-.10045 12.70675-2.25538 18.23624.95481 6.22574 3.57181 12.60874 9.63688 20.40909 8.00519 7.949-1.51235 12.13161-8.18823 15.33008-14.19116 6.24014-9.338062 13.03551-20.012364 9.67568-31.825026-2.71926-11.854302-13.1756-22.186873-26.29475-25.606983zm-6.52952 9.241815c13.16564 3.449075 24.14263 16.846272 19.82425 28.653759-2.40326 7.99742-10.1646 13.561255-19.01724 15.438955-7.18081 1.99514-16.42478.34056-21.06051-5.920493-7.90052-8.808913-7.24111-20.971157-2.742-30.174166 3.60067-6.968966 12.91388-11.494278 21.76729-8.330271z" fill="#ef6d4b"/></g><path d="m460.67173 459.90616c9.62754-10.04719 24.91775-11.36489 35.65235-3.07259 6.08417 4.7 7.8266 7.83374 9.12877 16.41852 1.82473 12.03037-5.78494 22.78698-18.03223 25.48941-6.75625 1.49086-8.00221 1.34661-15.53549-1.79837-10.89517-4.54849-14.6431-8.85726-16.11794-18.52988-1.31125-8.60012-.0584-13.32783 4.90454-18.50709z" fill="url(#c)" stroke-width="2.5901"/></g></g></svg>