<svg height="1024" viewBox="0 0 1024 1024" width="1024" xmlns="http://www.w3.org/2000/svg"><path d="m501.6622 1002.2929c-26.78276-11.84564-47.8995-36.56767-73.65271-70.56179s-56.14009-77.2568-87.30145-125.93023-63.09334-102.75179-92.19456-171.51268c-29.10121-68.76089-55.36785-152.19608-59.23109-235.6365s14.67792-166.87562 53.56535-229.19867c38.88744-62.32305 98.11612-103.52561 150.65288-126.445885s98.37461-27.555564 146.79061-27.813007c48.416-.257444 99.4052 3.862896 151.168 27.81325 51.76279 23.950354 104.29711 67.728952 138.54836 130.824282s50.21724 145.50046 46.35406 227.13769c-3.86318 81.63722-27.55465 162.49724-51.24754 225.84985-23.6929 63.3526-47.38437 109.19045-76.48541 159.40903-29.10104 50.21857-63.60888 104.81306-90.39157 143.18439s-45.83927 60.51816-71.59189 72.10697c-25.75262 11.5889-58.20028 12.619-84.98304.7733z" fill="#01fb00" stroke="#000004" stroke-width="2.4"/><g fill="#000600"><path d="m468.18284 546.98588c-8.24085-35.53863-16.48126-71.07538-28.06996-101.46409-11.5887-30.3887-26.52493-55.62577-43.26415-76.74321-16.73923-21.11744-35.28039-38.11351-52.53498-47.12755s-33.22091-10.04412-48.15799-5.92372-28.84322 13.39116-35.539 27.81342-6.18074 33.99387-1.2873 51.24835c4.89345 17.25448 14.16421 32.19071 26.01054 47.12716 11.84634 14.93645 26.26753 29.87268 42.23455 44.03683s33.47809 27.55497 51.76287 37.34094 37.34135 15.96648 52.27791 19.31415c14.93656 3.34768 25.7514 3.86267 36.56751 4.37772z" stroke="#000" transform="translate(15.296282 16.388874)"/><path d="m577.59878 562.66551c10.81611-.51505 21.63095-1.03004 36.56751-4.37772 14.93656-3.34767 33.99313-9.52818 52.27791-19.31415s35.79585-23.17679 51.76287-37.34094 30.38821-29.10038 42.23455-44.03683c11.84633-14.93645 21.11709-29.87268 26.01054-47.12716 4.89344-17.25448 5.40848-36.82609-1.2873-51.24835s-20.60192-23.69302-35.539-27.81342-30.9034-3.09032-48.15799 5.92372-35.79575 26.01011-52.53498 47.12755c-16.73922 21.11744-31.67545 46.35451-43.26415 76.74321-11.5887 30.38871-19.82911 65.92546-28.06996 101.46409z" stroke="#000"/><ellipse cx="479.95898" cy="681.97699" rx="22.404789" ry="23.177368" stroke="#000004" stroke-width="2.4"/><ellipse cx="580.58173" cy="682.39496" rx="22.404789" ry="23.177368" stroke="#000004" stroke-width="2.4"/></g><path d="m390.83121 762.57423c13.42261 10.03058 26.84634 20.06201 42.86518 28.85043 16.01883 8.78842 35.51776 16.69339 54.52794 20.85777s37.43757 4.75075 54.87917 2.92643 31.98123-5.85867 44.48814-10.14567c12.50691-4.28699 22.5576-8.70894 33.28001-15.61805s22.11572-16.30475 33.50936-25.70067c-15.4623 5.82715-30.92373 11.65398-45.5819 15.4755-14.65816 3.82151-28.51161 5.6371-44.31661 6.89353-15.80501 1.25643-33.56102 1.95356-49.3302 1.86257-15.76918-.091-29.55007-.97022-42.80373-3.21244-13.25365-2.24222-25.97862-5.84745-35.1743-8.68024-9.19569-2.83279-14.86105-4.89292-21.99651-7.01573s-15.74151-4.30825-24.34655-6.49343z" stroke="#000" transform="translate(12.018508 1.092592)"/></svg>