<svg height="1024" viewBox="0 0 1024 1024" width="1024" xmlns="http://www.w3.org/2000/svg"><path d="m96 448c42.66697-32.00023 85.33331-63.99998 111.99992-101.33306 26.66662-37.33308 37.33328-79.99975 64.00027-106.66675 26.667-26.66699 69.33385-37.3337 101.33388-26.66637 32.00003 10.66734 53.3326 42.66618 74.66593 74.66618 42.66667 10.66667 85.33366 21.33341 122.66757 48.00103 37.33391 26.66761 69.33269 69.33266 101.33279 69.33218s63.9995-42.66635 85.33282-85.33278c21.33332-42.66642 31.99995-85.33295 64.00038-117.33349s85.33362-53.33381 138.66644-74.66694" fill="none" stroke="#b50000" stroke-width="32"/><path d="m96 64v864h864" fill="none" stroke="#000" stroke-width="40"/><text fill="#000091" font-family="Lucida Grande" font-size="376.294" stroke="#0000a2" stroke-width="1.952" transform="scale(1.0502096 .95219086)" x="243.82082" y="834.7287"><tspan fill="#000091" stroke="#0000a2" stroke-width="1.952" x="243.82082" y="834.7287">f(x)</tspan></text></svg>