<svg height="1024" viewBox="0 0 1024 1024" width="1024" xmlns="http://www.w3.org/2000/svg"><g stroke="#0000a2" stroke-width="4"><rect fill="#6c4901" height="768" ry="16" width="64" x="98.85714" y="163.42857"/><rect fill="#c5a665" height="768" ry="16" width="128" x="162.85715" y="163.42857"/><rect fill="#61aaf3" height="768" rx="0" ry="16" width="96" x="290.85715" y="163.42857"/><rect fill="#2383b9" height="768" ry="16" width="128" x="450.85715" y="163.42857"/><rect fill="#289ec4" height="768" ry="16" width="128" x="578.85712" y="163.42857"/><rect fill="#fb0402" height="768" ry="16" width="64" x="706.85712" y="163.42857"/><rect fill="#52b200" height="768" ry="16" width="64" x="386.85715" y="163.42857"/></g><path d="m770.85714 163.42857 148-69.714279-2.85714 756.571419-145.14286 81.14286z" fill="#bc0102" stroke="#000"/><path d="m98.857143 163.42857 127.999997-63.999999h672l-128 63.999999z" fill="#f2f1dd"/><path d="m98.857143 163.42857 138.857137-78.285709" fill="none" stroke="#000" stroke-width="4.8"/><path d="m704.85713 164.85714 138.85714-78.285709" fill="none" stroke="#000" stroke-width="4.8"/><path d="m573.42857 164.85714 138.85714-78.285709" fill="none" stroke="#000" stroke-width="4.8"/><path d="m442 170.57143 138.85714-78.285709" fill="none" stroke="#000" stroke-width="4.8"/><path d="m382 167.71428 138.85714-78.285709" fill="none" stroke="#000" stroke-width="4.8"/><path d="m290.57143 164.85714 138.85714-78.285709" fill="none" stroke="#000" stroke-width="4.8"/><path d="m162 170.57143 138.85714-78.285709" fill="none" stroke="#000" stroke-width="4.8"/></svg>