<svg height="1024" viewBox="0 0 1024 1024" width="1024" xmlns="http://www.w3.org/2000/svg"><g stroke="#020000" stroke-width="1.28"><g fill="#02e000"><path d="m291.42856 94.285714-10.23045 9.280666 1.8454 13.68894-11.98782-6.86185-12.4487 5.98519 2.82157-13.52152-9.53911-9.989891 13.73163-1.494908 6.55321-12.159283 5.66505 12.597612z" transform="matrix(.71146413 0 0 .75571005 87.137088 94.379895)"/><path d="m359.76976 136.96338-7.62329-2.58513-6.45133 4.81433.10288-8.04903-6.57228-4.64787 7.68688-2.38944 2.38944-7.68688 4.64787 6.57228 8.04903-.10288-4.81433 6.45133z"/></g><path d="m-736 256h64v800h-64z" fill="#7e6806" transform="matrix(.94354129881 -.52424799892 .54446140243 .89946669629 904.72496639851 -344.13392554946)"/><path d="m-736 160h64v96h-64z" fill="#c4c7c5" transform="matrix(.94354129881 -.52424799892 .54446140243 .89946669629 904.72496639851 -344.13392554946)"/><path d="m-736 96h64v64h-64z" fill="#7e6806" transform="matrix(.94354129881 -.52424799892 .54446140243 .89946669629 904.72496639851 -344.13392554946)"/></g><g><g stroke-width="1.28"><path d="m297.14285 411.42856-19.05573 9.40456-3.05572 21.02925-14.83282-15.21691-20.94427 3.59223 9.88854-18.80913-9.88854-18.80913 20.94427 3.59222 14.83282-15.2169 3.05572 21.02924z" fill="#02e000" stroke="#020000" transform="matrix(.89328022 -.44950022 .44950022 .89328022 -47.339041 165.670546)"/><path d="m628 226.28571-19.05573 9.40456-3.05573 21.02924-14.83281-15.2169-20.94427 3.59222 9.88854-18.80912-9.88854-18.80913 20.94427 3.59222 14.83281-15.2169 3.05573 21.02924z" fill="#02e000" stroke="#020000" transform="matrix(.89328022 -.44950022 .44950022 .89328022 -115.647964 413.058516)"/><path d="m274.2857 177.14286-8.44097-8.52904-11.81133 2.11822 5.50319-10.66345-5.66445-10.57868 11.84213 1.93866 8.31051-8.65621 1.81564 11.86162 10.80063 5.22885-10.72 5.39221z" fill="#02e000" stroke="#020000" transform="matrix(.73589858 -.37982833 .37030549 .75482306 -16.359732 181.57743)"/><path d="m404.39324 94.069766-.0661 12.727504 10.44717 7.26983-12.12499 3.8702-3.68567 12.18235-7.4276-10.3356-12.72503.25928 7.53448-10.25795-4.17884-12.022105 12.08416 3.995835z" fill="#02e000" stroke="#020000" transform="matrix(.83633322 -.41272804 .42084438 .8202038 13.604318 183.52419)"/><path d="m208.57144 299.99998-5.06018-5.96592-7.78328.78628 4.11025-6.65609-3.15296-7.15936 7.60045 1.85224 5.83464-5.21101.58709 7.80083 6.75897 3.93878-7.23761 2.96894z" fill="#02e000" stroke="#020000" transform="matrix(-1.1410709 -.44300716 -.57418894 .88037673 1026.6306 -79.829691)"/><path d="m568.57142 357.14287-11.86579-2.60715-8.87461 8.29672-1.18719-12.0907-10.63306-5.87642 11.13208-4.86531 2.30302-11.92856 8.06718 9.08377 12.0564-1.49582-6.14628 10.47938z" fill="#02e000" stroke="#020000" transform="matrix(.89328022 -.44950022 .44950022 .89328022 6.769757 130.948994)"/><path d="m119.00218 370.05946-4.13381-5.93292-5.71731 4.42723.64691-7.20204-7.22547-.28356 5.12495-5.10126-5.35277-4.86167 7.20496-.61353-.97544-7.16495 5.9137 4.16127 3.85831-6.11567 1.85534 6.98897 6.88671-2.2048-3.07114 6.54645 6.69274 2.73771-6.56061 3.04078 3.36717 6.39923-6.98029-1.88771z" fill="#02e000" stroke="#020000"/><path d="m191.54242 425.31328-13.58922 2.47505-5.66505 12.59761-6.5532-12.15928-13.73164-1.49491 9.53911-9.98989-2.82157-13.52152 12.4487 5.98519 11.98782-6.86185-1.84539 13.68894z" fill="#02e000" stroke="#020100"/><path d="m294.30676 447.85355-18.64939-3.49088-13.44833 13.38389-2.44296-18.81537-16.8846-8.65427 17.13956-8.13765 3.01308-18.73253 13.03579 13.78602 18.74678-2.92307-9.08301 16.65789z" fill="#02e000" stroke="#020104"/><path d="m478.26935 108.09609-5.87785-11.909828-13.14328-1.909829 9.51056-9.270511-2.24514-13.090169 11.75571 6.180339 11.7557-6.18034-2.24514 13.090171 9.51057 9.270509-13.14328 1.90983z" fill="#02e000" stroke="#020000"/><path d="m669.47032 108.58629-7.64531 1.65737-2.96894 7.23761-3.93879-6.75897-7.80083-.58708 5.21101-5.83464-1.85223-7.600454 7.15936 3.152961 6.65609-4.11025-.78628 7.783273z" fill="#02e000" stroke="#020000"/><path d="m203.46375 240.34048-2.49706-9.34672-9.11523-3.24177 8.11762-5.26314.26636-9.67086 7.51402 6.09392 9.27984-2.73515-3.47369 9.02939 5.4689 7.98045-9.66089-.51345z" fill="#02e000" stroke="#020000"/><path d="m185.36152 261.80495-8.485-.044-4.84655 6.96478-2.58013-8.08333-8.12157-2.45711 6.8904-4.95173-.17285-8.48336 6.83863 5.02298 8.01473-2.78589-2.66389 8.05611z" fill="#02e000" stroke="#020000"/><path d="m532.93757 80.953227-9.34671 2.497062-3.24178 9.115223-5.26314-8.117619-9.67086-.266353 6.09392-7.514027-2.73514-9.279838 9.02938 3.473696 7.98045-5.468903-.51345 9.660889z" fill="#02e000" stroke="#020000"/><path d="m161.86184 292.87203-9.32469-1.74544-6.72417 6.69194-1.22147-9.40768-8.4423-4.32714 8.56978-4.06883 1.50653-9.36626 6.5179 6.89301 9.37339-1.46153-4.5415 8.32894z" fill="#02dd00" stroke="#020000" transform="matrix(1.1488809 0 0 .9932619 -24.203761 1.915147)"/><path d="m632.36328 270.33431-13.58922 2.47505-5.66505 12.59761-6.5532-12.15928-13.73164-1.49491 9.53911-9.9899-2.82157-13.52151 12.44871 5.98518 11.98781-6.86184-1.84539 13.68894z" fill="#02e000" stroke="#020000"/><path d="m432.95867 106.96339-5.48553-5.756-7.85149 1.25568 3.77916-6.995746-3.62046-7.079179 7.82117 1.43239 5.61392-5.630855 1.05459 7.881014 7.09006 3.599119-7.16941 3.438345z" fill="#02e000" stroke="#020100"/><path d="m578.31234 322.74374-8.51547-6.64416-10.30084 3.24817 3.68754-10.15185-6.27233-8.79295 10.7945.36997 6.42433-8.68251 2.98383 10.38051 10.24278 3.42686-8.95039 6.04553z" fill="#02e000" stroke="#020100"/><path d="m648.92149 231.98844-5.10917 1.77347-1.43553 5.21423-3.26549-4.31108-5.40263.24602 3.09099-4.43787-1.90348-5.06218 5.17583 1.56833 4.22621-3.37462.10785 5.40715z" fill="#02e000" stroke="#020100"/><path d="m115.24404 402.37247 4.39034-7.77717-3.9177-8.02565 8.75322 1.77218 6.42221-6.20601 1.01945 8.87243 7.88684 4.19013-8.12316 3.71128-1.54788 8.79566-6.03983-6.57874z" fill="#02e000" stroke="#020100"/><path d="m234.52869 437.38118-9.13647-2.5974-7.31928 6.05389-.35304-9.49194-8.01938-5.09029 8.91827-3.26894 2.36303-9.19987 5.86484 7.47163 9.47981-.59554-5.2936 7.88665z" fill="#02e000" stroke="#020100"/><path d="m323.75388 433.18211-7.32018-5.73795-8.87671 2.77725 3.19506-8.73503-5.38438-7.58404 9.29484.33941 5.54898-7.46444 2.54946 8.9448 8.81384 2.97075-7.71918 5.18878z" fill="#02e000" stroke="#020100"/><path d="m666.70073 136.37059-4.21855 3.57809.55599 5.50361-4.70657-2.90639-5.06243 2.22948 1.30973-5.37433-3.68474-4.12571 5.51602-.41513 2.78514-4.77932 2.09936 5.11777z" fill="#02e000" stroke="#020100"/><path d="m428.30467 311.127-14.40575 1.12523-7.23991 12.50502-5.52178-13.35297-14.13024-3.02129 10.99311-9.37782-1.49307-14.37229 12.3159 7.55716 13.20748-5.86127-3.38147 14.0484z" fill="#02e000" stroke="#020100" transform="matrix(1.3010259 0 0 1.2096231 -81.794853 16.413026)"/><path d="m561.6448 86.873118-6.26554-6.632479-9.01571 1.40135 4.3717-8.008433-4.11877-8.141408 8.9674 1.682995 6.47017-6.433017 1.17046 9.048581 8.11755 4.165585-8.24402 3.909336z" fill="#02e000" stroke="#020100"/><path d="m593.79639 86.281387-4.15627-8.421521-9.2937-1.350454 6.72498-6.555241-1.58755-9.256147 8.31254 4.37016 8.31254-4.370161-1.58756 9.256149 6.72499 6.55524-9.2937 1.350454z" fill="#02e000" stroke="#020100"/><path d="m142.08487 331.15672-12.28869-2.16376-8.74911 8.89646-1.73956-12.35588-11.16466-5.57174 11.21359-5.4726 1.84897-12.33998 8.66994 8.97363 12.30738-2.05479-5.85527 11.01861z" fill="#02e000" stroke="#020100"/></g><path d="m528.57137 742.85712-5.40804-84.0213-71.69936 44.13646 62.31863-56.6146-79.21109-28.53818 83.11811 13.42405-27.07526-79.72299 41.32796 73.3541 45.44879-70.87476-31.58299 78.04704 83.74898-8.6564-80.7113 23.96895 58.98447 60.08042-69.06235-48.15824z" fill="#02e000"/><path d="m662.85714 519.99999-57.46029-49.117-17.58356 73.51859 2.57531-75.54821-68.44232 32.09071 60.67165-45.09008-67.76262-33.50213 73.081 19.3218-16.05628-73.86718 30.45887 69.18397 47.74076-58.60874-35.09941 66.9492 75.58803.78328-74.22712 14.30032z" fill="#02e000"/><path d="m294.28572 299.99999-15.5545-37.08068-25.56509 31.03781 19.29277-35.28042-40.20591-.63584 39.6122-6.91328-24.57086-31.83068 30.10282 26.65969 9.56655-39.05637-2.07459 40.15738 36.50015-16.87182-32.68978 23.41574 35.94839 18.01755-38.68892-10.95842z" fill="#02e000"/><path d="m454.28572 248.57144-27.48001-35.06742-16.78449 41.26931 10.28331-43.34892-42.7306 12.60836 40.30308-18.9878-36.4997-25.54695 39.97382 19.67152-2.78379-44.46488 9.54346 43.51778 33.02838-29.89984-28.07333 34.59426 43.9695 7.18038-44.55031-.37943z" fill="#02e000"/></g></svg>