<?xml version="1.0" encoding="UTF-8" standalone="no"?>
<svg
   xmlns:dc="http://purl.org/dc/elements/1.1/"
   xmlns:cc="http://creativecommons.org/ns#"
   xmlns:rdf="http://www.w3.org/1999/02/22-rdf-syntax-ns#"
   xmlns:svg="http://www.w3.org/2000/svg"
   xmlns="http://www.w3.org/2000/svg"
   xmlns:sodipodi="http://sodipodi.sourceforge.net/DTD/sodipodi-0.dtd"
   xmlns:inkscape="http://www.inkscape.org/namespaces/inkscape"
   height="1024"
   viewBox="0 0 1024 1024"
   width="1024"
   version="1.1"
   id="svg875"
   sodipodi:docname="save_file.svg"
   inkscape:version="1.0beta2 (2b71d25, 2019-12-03)">
  <metadata
     id="metadata881">
    <rdf:RDF>
      <cc:Work
         rdf:about="">
        <dc:format>image/svg+xml</dc:format>
        <dc:type
           rdf:resource="http://purl.org/dc/dcmitype/StillImage" />
      </cc:Work>
    </rdf:RDF>
  </metadata>
  <defs
     id="defs879" />
  <sodipodi:namedview
     inkscape:snap-global="false"
     pagecolor="#ffffff"
     bordercolor="#666666"
     inkscape:document-rotation="0"
     borderopacity="1"
     objecttolerance="10"
     gridtolerance="10"
     guidetolerance="10"
     inkscape:pageopacity="0"
     inkscape:pageshadow="2"
     inkscape:window-width="1920"
     inkscape:window-height="1058"
     id="namedview877"
     showgrid="false"
     inkscape:zoom="0.921875"
     inkscape:cx="415.76755"
     inkscape:cy="747.35021"
     inkscape:window-x="0"
     inkscape:window-y="0"
     inkscape:window-maximized="0"
     inkscape:current-layer="svg875" />
  <path
     d="m218.57143 407.14285 619.99999 381.42858-5.71428 10 23.44888 13.60733-70.17332 118.74473-26.1327-18.06635-2.61319 3.91979-3.1011 4.65164 25.12256 16.96954-22.85716 32.22952-22.2654-14.91334-10.35714 11.42857-623.92857-378.57144 47.14285-75.71428s20.42752 4.26981 27.14286-2.85714 1.42857-31.42857 1.42857-31.42857z"
     fill="#696b69"
     stroke="#000"
     transform="matrix(1.1048516 0 0 1.1161229 -76.120315 -82.785203)"
     id="path855" />
  <path
     d="m232.28571 433.42857-104.57143 157.14286 584.57143 354.85714 103.14286-155.71429z"
     fill="#2b2d2a"
     stroke="#000"
     transform="matrix(1.1048516 0 0 1.1161229 -76.120315 -82.785203)"
     id="path857" />
  <text
     stroke-width="1.11047"
     transform="scale(.99493788 1.0050879)"
     x="-849.07953"
     y="-169.61758"
     id="text861"><tspan
       stroke-width="1.11047"
       x="-849.07953"
       y="-169.61758"
       id="tspan859" /></text>
  <g
     stroke="#000"
     id="g873"
     style="stroke-width:5.6;stroke-miterlimit:4;stroke-dasharray:none">
    <path
       d="m837.90791 804.44416-69.33649 111.27012 17.14286 12.19362 67.99456-115.39739z"
       fill="#cfa833"
       transform="matrix(1.1048516 0 0 1.1161229 -76.120315 -82.785203)"
       id="path867"
       style="stroke-width:5.04289636;stroke-miterlimit:4;stroke-dasharray:none" />
    <path
       d="m761.76032 928.31145-20.25997 30.25998 14.04061 10.34662 21.60189-29.84155z"
       fill="#cfa833"
       transform="matrix(1.1048516 0 0 1.1161229 -76.120315 -82.785203)"
       id="path869"
       style="stroke-width:5.04289636;stroke-miterlimit:4;stroke-dasharray:none" />
    <path
       d="m728.57143 302.85714s132.85714 91.42858 132.85714 91.42858c-51.42857 27.14285-102.85575 54.28497-138.33292 83.3334-35.47716 29.04842-55.00041 59.99993-74.52422 90.95231 0 0 72.85714 61.42857 72.85714 61.42857s-162.85713-20-162.85713-20-30.00001-138.57142-30.00001-138.57142 70 50 70 50c30-20.95238 59.9996-41.90449 81.66651-78.33337s35.00016-88.33331 48.33349-140.23807z"
       fill="#01db00"
       stroke-width="1.28"
       transform="matrix(1.5707363 0 0 1.7805953 -365.2865 -501.4149)"
       id="path871"
       style="stroke-width:3.34852677;stroke-miterlimit:4;stroke-dasharray:none" />
  </g>
  <text
     transform="matrix(0.85473649,0.53239892,-0.54672472,0.82940692,0,0)"
     id="text6080"
     y="394.29926"
     x="400.19934"
     style="font-size:168.169px;line-height:1;font-family:Courier;-inkscape-font-specification:'Courier Normal';fill:#d3b800;fill-opacity:1;stroke:#d3b800;stroke-width:0.875878;stroke-opacity:1"
     xml:space="preserve"><tspan
       style="stroke-width:0.875878"
       y="394.29926"
       x="400.19934"
       id="tspan6078"
       sodipodi:role="line">M.2 SSD</tspan></text>
</svg>
